# Blender 3.6.5
# www.blender.org
# mtllib egg.mtl
o Cylinder
v 0.000000 -0.755774 -1.217059
v -0.043624 0.880959 -0.539824
v 0.334254 -0.755792 -1.175732
v 0.776834 -0.755792 -0.946575
v 0.214054 0.890178 -0.498299
v 1.076357 -0.755792 -0.575325
v 0.418234 0.881261 -0.344296
v 1.221295 -0.754339 -0.112827
v 0.520270 0.881424 -0.153403
v 1.193674 -0.755774 0.237437
v 1.079612 -0.757258 0.569584
v 0.533248 0.886222 0.112525
v 0.795853 -0.756264 0.926794
v 0.417206 0.879116 0.346228
v 0.382106 -0.754704 1.162487
v 0.182086 0.892338 0.512498
v 0.000000 -0.755774 1.217059
v -0.346889 -0.756984 1.170668
v -0.119584 0.883693 0.531707
v -0.765293 -0.756999 0.953919
v -0.350866 0.880959 0.412560
v -1.069762 -0.754759 0.590631
v -0.482037 0.880960 0.246886
v -1.215666 -0.756999 0.133379
v -0.539824 0.880959 0.043624
v -1.174075 -0.754759 -0.338796
v -0.958322 -0.755792 -0.758744
v -0.498299 0.890178 -0.214054
v -0.676162 -0.755774 -1.011948
v -0.370582 -0.754759 -1.164433
v -0.299981 0.877203 -0.458475
v 0.461046 -0.944774 -0.862557
v 0.851739 -0.944523 -0.455264
v 0.958041 -0.944447 -0.094359
v 0.924223 -0.944498 0.280360
v 0.669622 -0.944586 0.703794
v 0.263652 -0.944446 0.927391
v -0.111305 -0.944505 0.957613
v -0.538267 -0.944572 0.805573
v -0.851739 -0.944523 0.455264
v -0.971226 -0.944532 -0.024165
v -0.842163 -0.944473 -0.469317
v -0.519380 -0.944683 -0.820795
v -0.077661 -0.944449 -0.961005
v 0.427413 0.646896 0.521297
v 0.513494 -0.025496 0.768498
v 0.325765 0.169102 0.786465
v 0.747864 0.444734 -0.000000
v 0.674432 0.605261 0.134153
v 0.915148 -0.048985 0.182034
v 0.872021 -0.136517 0.430690
v 0.584933 0.694084 0.300470
v 0.675668 -0.108864 0.675668
v 0.856120 0.156156 -0.000000
v 0.289786 0.419721 0.699605
v 0.505652 0.679614 0.605112
v 0.594899 0.015493 0.846323
v 0.407169 0.210091 0.864290
v 0.829269 0.485723 0.077825
v 0.755837 0.646250 0.211978
v 0.996553 -0.007996 0.259859
v 0.968969 -0.081613 0.445466
v 0.657650 0.737456 0.392193
v 0.884172 -0.094375 0.614217
v 0.757073 -0.067875 0.753493
v 0.937525 0.197146 0.077825
v 0.371191 0.460710 0.777430
v 0.036882 1.010375 -0.526039
v 0.369998 1.010367 -0.369998
v 0.510265 1.010323 -0.101498
v 0.483430 1.010337 0.200244
v 0.278944 1.010326 0.440825
v -0.012976 1.010352 0.521501
v -0.333272 1.010364 0.406092
v -0.508954 1.010324 0.114467
v -0.483429 1.010342 -0.200243
v -0.289042 1.010321 -0.432582
v 0.776605 0.359228 0.516234
vn 0.4270 0.3706 -0.8248
vn 0.7222 0.3726 -0.5827
vn 0.8852 0.3725 -0.2786
vn -0.1242 0.3750 0.9187
vn -0.8255 0.3714 -0.4250
vn -0.6188 0.3763 -0.6896
vn -0.4147 0.3763 -0.8285
vn -0.1293 0.3762 -0.9175
vn -0.0786 -0.7898 0.6083
vn -0.5576 -0.7798 -0.2846
vn -0.0885 -0.7889 -0.6081
vn 0.5833 -0.7881 0.1968
vn -0.2861 -0.7830 0.5523
vn -0.4057 -0.7943 -0.4522
vn 0.2998 -0.7583 -0.5789
vn 0.4850 -0.7840 0.3875
vn 0.3848 0.4142 0.8248
vn 0.7302 0.5680 0.3798
vn 0.6707 0.4651 0.5778
vn 0.4662 -0.8685 0.1686
vn 0.7223 0.3185 0.6139
vn -0.7767 0.1363 0.6149
vn 0.9940 0.0974 -0.0503
vn 0.5780 0.0210 0.8157
vn -0.3188 0.3397 0.8849
vn -0.9588 0.0795 0.2726
vn 0.1589 0.0063 -0.9873
vn -0.4564 0.1062 0.8834
vn 0.2501 0.3444 0.9049
vn 0.8943 0.0442 0.4454
vn 0.0627 0.0276 0.9976
vn 0.5650 0.3911 -0.7265
vn 0.8127 0.3881 -0.4347
vn 0.9035 0.3992 -0.1561
vn 0.9266 0.3657 0.0873
vn 0.8825 0.3663 0.2950
vn 0.7362 0.3655 0.5696
vn 0.4594 0.3567 0.8134
vn 0.5994 0.3838 0.7025
vn 0.1176 0.3721 0.9207
vn 0.0937 0.3826 0.9192
vn -0.4262 0.3791 0.8213
vn -0.7139 0.3779 0.5895
vn -0.8852 0.3776 0.2717
vn -0.9198 0.3797 -0.0988
vn -0.7039 0.3926 -0.5920
vn 0.3916 0.3843 -0.8360
vn -0.2836 0.3910 -0.8756
vn -0.0000 -1.0000 -0.0002
vn 0.5825 -0.8114 0.0477
vn -0.5356 -0.8301 -0.1554
vn -0.1683 -0.8301 -0.5317
vn 0.4291 -0.8194 -0.3802
vn -0.1867 -0.8306 0.5246
vn 0.2864 -0.8084 0.5142
vn -0.5608 -0.8122 0.1608
vn 0.0887 -0.8265 -0.5560
vn 0.5729 -0.8011 -0.1733
vn -0.4106 -0.8304 -0.3766
vn 0.4739 -0.8332 0.2848
vn 0.0669 -0.8071 0.5866
vn -0.4439 -0.8107 0.3818
vn -0.6314 -0.7732 -0.0593
vn -0.3938 0.9173 -0.0589
vn -0.2735 -0.7868 -0.5533
vn 0.8638 0.4513 0.2238
vn 0.8940 0.4459 -0.0441
vn 0.5085 0.5325 0.6767
vn -0.6574 0.6708 0.3433
vn 0.1413 -0.9569 0.2538
vn 0.2894 0.6883 -0.6652
vn 0.0135 0.8903 -0.4552
vn -0.1100 -0.8273 0.5508
vn 0.5459 -0.8106 -0.2119
vn -0.7191 0.1332 0.6820
vn -0.4512 -0.5033 0.7370
vn 0.6100 0.2288 -0.7586
vn 0.7339 -0.3203 -0.5990
vn 0.6847 0.4124 0.6009
vn 0.1221 0.3838 -0.9153
vn -0.2807 0.2383 -0.9298
vn -0.0000 1.0000 -0.0001
vn 0.6027 0.0669 -0.7952
vn -0.8085 0.3303 0.4870
vn -0.7575 0.1757 -0.6287
vn 0.9439 0.3195 0.0839
vn 0.8587 0.2398 -0.4530
vn -0.9703 0.2152 -0.1102
vn 0.5682 0.2644 0.7792
vn 0.5680 0.3411 0.7490
vn 0.5193 0.4330 0.7368
vn 0.5972 0.3685 0.7124
vn 0.7316 0.3052 0.6096
vn 0.8441 0.2966 0.4466
vn 0.8974 0.3480 0.2714
vn 0.8938 0.4128 0.1754
vn 0.9156 0.3435 0.2091
vn 0.9432 0.2713 0.1916
vn 0.8810 0.3727 0.2914
vn 0.0001 1.0000 -0.0001
vn 0.0001 1.0000 0.0001
vn -0.0000 1.0000 -0.0000
vn -0.0000 1.0000 0.0001
vn -0.0002 1.0000 -0.0001
vn 0.0002 1.0000 0.0001
vn -0.0002 -1.0000 0.0003
vn 0.0001 -1.0000 -0.0001
vn 0.0002 -1.0000 -0.0002
vn -0.0002 -1.0000 0.0001
vn -0.0000 -1.0000 -0.0001
vn -0.0002 -1.0000 0.0004
vn 0.0002 -1.0000 -0.0001
vn 0.0001 -1.0000 0.0002
vn 0.0003 -1.0000 -0.0007
vn -0.0009 -1.0000 0.0014
vt 0.416068 0.131552
vt 0.398580 0.659273
vt 0.347254 0.574929
vt 0.441207 0.171783
vt 0.441207 0.712395
vt 0.729569 0.581150
vt 0.747963 0.001727
vt 0.792973 0.022998
vt 0.792973 0.281903
vt 0.974398 0.273851
vt 0.792973 0.394577
vt 0.608328 0.074174
vt 0.606579 0.640568
vt 0.560186 0.647841
vt 0.636614 0.066380
vt 0.637968 0.620659
vt 0.367188 0.031196
vt 0.279286 0.433463
vt 0.265314 0.369789
vt 0.389228 0.083042
vt 0.313301 0.508813
vt 0.254800 0.494281
vt 0.229763 0.423254
vt 0.255158 0.380777
vt 0.067097 0.717550
vt 0.094430 0.679086
vt 0.112322 0.782469
vt 0.008694 0.411415
vt 0.035074 0.436453
vt 0.018664 0.531349
vt 0.176079 0.037570
vt 0.148224 0.094747
vt 0.141024 0.004604
vt 0.238091 0.633187
vt 0.219713 0.564132
vt 0.037927 0.628903
vt 0.054800 0.578457
vt 0.026356 0.155175
vt 0.038297 0.259887
vt 0.008694 0.302106
vt 0.215803 0.125413
vt 0.194286 0.172283
vt 0.953926 0.104118
vt 0.977090 0.175994
vt 0.925429 0.154663
vt 0.686124 0.510954
vt 0.702824 0.577898
vt 0.677915 0.585631
vt 0.662374 0.511133
vt 0.737235 0.768807
vt 0.724517 0.791925
vt 0.721143 0.750743
vt 0.692299 0.620366
vt 0.665589 0.622588
vt 0.549298 0.040996
vt 0.553903 0.000000
vt 0.562778 0.059803
vt 0.723089 0.621135
vt 0.982209 0.101277
vt 0.991306 0.141394
vt 0.987481 0.235445
vt 0.989971 0.339893
vt 0.578863 0.027553
vt 0.581621 0.072481
vt 0.401929 0.066900
vt 0.977104 0.349577
vt 0.747644 0.594721
vt 0.720559 0.420237
vt 0.724345 0.319806
vt 0.708441 0.248139
vt 0.712277 -0.000000
vt 0.683581 0.222981
vt 0.677400 0.008020
vt 0.637968 0.035215
vt 0.656283 0.250094
vt 0.796413 0.158447
vt 0.805665 0.025940
vt 0.880779 0.095633
vt 0.898354 0.150272
vt 0.876372 0.046272
vt 0.798387 0.531425
vt 0.470451 0.605990
vt 0.441207 0.563735
vt 0.512422 0.636796
vt 0.439960 0.130685
vt 0.141119 0.715490
vt 0.109859 0.088456
vt 0.105217 -0.000000
vt 0.074647 0.127598
vt 0.060197 0.053017
vt 0.244852 0.257083
vt 0.222009 0.301597
vt 0.188167 0.670566
vt 0.205125 0.736819
vt 0.160647 0.790097
vt 0.459851 0.720000
vt 0.443813 0.713357
vt 0.441207 0.647841
vt 0.457218 0.656764
vt 0.704749 0.475901
vt 0.470771 0.662931
vt 0.470744 0.751118
vt 0.459851 0.739121
vt 0.459851 0.647841
vt 0.724613 0.702675
vt 0.740370 0.690955
vt 0.717134 0.701901
vt 0.710542 0.696615
vt 0.709082 0.639949
vt 0.721143 0.645235
vt 0.457216 0.765673
vt 0.441207 0.755221
vt 0.735286 0.651669
vt 0.751043 0.639949
vt 0.735286 0.821166
vt 0.751043 0.809446
vt 0.900117 0.122152
vt 0.927192 0.126543
vt 0.882542 0.067514
vt 0.716553 0.794905
vt 0.709961 0.789619
vt 0.721143 0.854329
vt 0.709082 0.849043
vt 0.660668 0.925517
vt 0.637968 0.920330
vt 0.655623 0.794432
vt 0.373703 -0.000000
vt 0.815671 0.851974
vt 0.792973 0.785212
vt 0.842691 0.531425
vt 0.610609 0.035585
vt 0.637968 0.023832
vt 0.748548 0.639949
vt 0.927530 0.000000
vt 0.954675 0.077244
vt 0.878135 0.018153
vt 0.637968 0.661359
vt 0.654187 0.642050
vt 0.672177 0.639949
vt 0.690129 0.663045
vt 0.704493 0.735769
vt 0.698569 0.835861
vt 0.681584 0.890380
vt 0.792973 0.678576
vt 0.811450 0.588120
vt 0.873649 0.533772
vt 0.895317 0.588367
vt 0.898897 0.700576
vt 0.877932 0.801446
vt 0.847871 0.855209
s 0
usemtl Material.001
f 5/1/1 4/2/1 3/3/1
f 4/2/2 7/4/2 6/5/2
f 9/6/3 8/7/3 6/8/3
f 17/9/4 19/10/4 18/11/4
f 28/12/5 27/13/5 26/14/5
f 31/15/6 29/16/6 27/13/6
f 31/17/7 30/18/7 29/19/7
f 2/20/8 1/21/8 30/18/8
f 18/22/9 38/23/9 17/24/9
f 27/25/10 42/26/10 26/27/10
f 1/28/11 44/29/11 30/30/11
f 11/31/12 35/32/12 10/33/12
f 20/34/13 39/35/13 18/22/13
f 29/36/14 43/37/14 27/25/14
f 4/38/15 32/39/15 3/40/15
f 13/41/16 36/42/16 11/31/16
f 45/43/17 16/44/17 55/45/17
f 52/46/18 12/47/18 14/48/18
f 52/46/19 14/48/19 45/49/19
f 51/50/20 62/51/20 64/52/20
f 14/48/21 71/53/21 72/54/21
f 21/55/22 74/56/22 23/57/22
f 9/6/23 70/58/23 12/47/23
f 14/59/24 72/60/24 16/44/24
f 19/10/25 73/61/25 74/62/25
f 23/57/26 75/63/26 25/64/26
f 2/20/27 68/65/27 5/1/27
f 19/10/28 74/62/28 21/66/28
f 16/44/29 72/60/29 73/61/29
f 12/47/30 71/53/30 14/48/30
f 16/44/31 73/61/31 19/10/31
f 5/1/32 7/4/32 4/2/32
f 7/67/33 9/6/33 6/8/33
f 48/68/34 54/69/34 8/7/34 9/6/34 12/47/34
f 50/70/35 10/71/35 8/7/35 54/69/35
f 51/72/36 11/73/36 10/71/36 50/70/36
f 13/74/37 11/73/37 51/72/37 53/75/37
f 15/76/38 13/77/38 46/78/38 47/79/38
f 53/80/39 46/78/39 13/77/39
f 16/44/40 15/76/40 47/79/40 55/45/40
f 17/9/41 15/76/41 16/44/41 19/10/41
f 20/81/42 18/11/42 19/10/42 21/66/42
f 22/82/43 20/83/43 21/55/43 23/57/43
f 24/84/44 22/82/44 23/57/44 25/64/44
f 26/14/45 24/84/45 25/64/45 28/12/45
f 28/12/46 31/15/46 27/13/46
f 5/1/47 68/65/47 69/85/47
f 31/17/48 2/20/48 30/18/48
f 41/86/49 35/32/49 36/42/49
f 35/32/50 34/87/50 8/88/50 10/33/50
f 26/27/51 42/26/51 41/86/51
f 30/30/52 44/29/52 43/37/52
f 33/89/53 32/39/53 4/38/53 6/90/53
f 18/22/54 39/35/54 38/23/54
f 36/42/55 13/41/55 15/91/55 37/92/55
f 40/93/56 22/94/56 24/95/56 41/86/56
f 44/29/57 1/28/57 3/40/57 32/39/57
f 33/89/58 6/90/58 8/88/58 34/87/58
f 27/25/59 43/37/59 42/26/59
f 11/31/60 36/42/60 35/32/60
f 37/92/61 15/91/61 17/24/61 38/23/61
f 40/93/62 39/35/62 20/34/62 22/94/62
f 24/95/63 26/27/63 41/86/63
f 63/96/64 52/97/64 45/98/64 56/99/64
f 29/36/65 30/30/65 43/37/65
f 52/46/66 49/100/66 12/47/66
f 49/100/67 48/68/67 12/47/67
f 45/43/68 14/59/68 16/44/68
f 67/101/69 56/102/69 45/103/69 55/104/69
f 64/52/70 65/105/70 53/106/70 51/50/70
f 59/107/71 48/108/71 49/109/71 60/110/71
f 60/111/72 49/112/72 52/97/72 63/96/72
f 57/113/73 46/114/73 53/106/73 65/105/73
f 61/115/74 62/51/74 51/50/74 50/116/74
f 58/117/75 67/118/75 55/45/75 47/79/75
f 58/117/76 47/79/76 46/78/76 57/119/76
f 66/120/77 54/121/77 48/108/77 59/107/77
f 66/120/78 61/122/78 50/123/78 54/121/78
f 63/124/79 56/125/79 78/126/79
f 3/3/80 1/21/80 2/20/80 5/1/80
f 68/65/81 2/20/81 31/17/81 77/127/81
f 75/128/82 74/129/82 71/130/82
f 7/4/83 5/1/83 69/85/83
f 23/57/84 74/56/84 75/63/84
f 76/131/85 77/132/85 31/15/85 28/12/85
f 12/47/86 70/58/86 71/53/86
f 69/133/87 70/58/87 9/6/87 7/67/87
f 76/131/88 28/12/88 25/64/88 75/63/88
f 67/118/89 78/134/89 56/135/89
f 67/118/90 58/117/90 78/134/90
f 58/117/91 57/119/91 78/134/91
f 65/136/92 78/134/92 57/119/92
f 65/137/93 64/138/93 78/126/93
f 64/138/94 62/139/94 78/126/94
f 62/139/95 61/140/95 78/126/95
f 66/141/96 78/126/96 61/140/96
f 66/141/97 59/142/97 78/126/97
f 60/143/98 78/126/98 59/142/98
f 63/124/99 78/126/99 60/143/99
f 73/144/100 72/145/100 74/129/100
f 71/130/101 74/129/101 72/145/101
f 71/130/102 70/146/102 75/128/102
f 70/146/103 69/147/103 75/128/103
f 69/147/103 68/148/103 75/128/103
f 77/149/104 75/128/104 68/148/104
f 75/128/105 77/149/105 76/150/105
f 36/42/106 37/92/106 41/86/106
f 38/23/107 41/86/107 37/92/107
f 39/35/108 41/86/108 38/23/108
f 40/93/109 41/86/109 39/35/109
f 41/86/110 42/26/110 35/32/110
f 43/37/111 35/32/111 42/26/111
f 35/32/112 43/37/112 34/87/112
f 34/87/113 43/37/113 33/89/113
f 43/37/114 44/29/114 33/89/114
f 44/29/115 32/39/115 33/89/115
