# Blender 3.6.5
# www.blender.org
# mtllib linemate.mtl
o Cube.001
v -0.159898 -0.820733 0.586535
v 0.597988 1.302637 -0.199229
v -0.241438 -1.064026 -0.067855
v 0.147163 0.975881 -0.628245
v 0.503404 -0.994789 0.568595
v 1.117512 0.952129 -0.478201
v 0.421863 -1.238082 -0.085795
v 0.666687 0.625372 -0.907216
v 0.691213 1.279239 -0.732450
v -0.354751 -1.164520 0.344723
v -0.175545 1.087516 1.117209
v -0.302817 -0.966507 -0.327706
v -0.471793 1.018327 0.483555
v 0.329319 -1.171048 0.395634
v 0.446191 1.079125 0.827449
v 0.381253 -0.973035 -0.276795
v 0.149943 1.009936 0.193795
v -0.031645 1.411872 0.707760
v -0.269520 -1.115776 0.314294
v -1.197496 1.075720 0.122659
v -0.200025 -1.176577 -0.382514
v -1.329644 0.653329 -0.423408
v 0.333584 -0.790441 0.346057
v -0.594326 1.246869 -0.155694
v 0.403080 -0.851242 -0.350751
v -0.726474 0.824477 -0.701761
v -1.142476 1.255334 -0.385548
vn -0.9034 0.3353 0.2675
vn -0.3432 -0.2635 -0.9016
vn 0.9034 -0.3349 -0.2677
vn 0.3500 0.2839 0.8927
vn -0.2272 -0.9032 0.3641
vn -0.3176 0.2559 -0.9130
vn 0.6040 0.1846 -0.7753
vn -0.5014 0.8561 -0.1252
vn 0.5823 0.8103 0.0662
vn -0.9821 -0.0639 0.1774
vn -0.1692 0.2875 -0.9427
vn 0.9820 0.0644 -0.1774
vn 0.1706 -0.2651 0.9490
vn 0.0118 -0.9595 -0.2816
vn -0.2940 0.6997 -0.6511
vn 0.5924 0.7227 -0.3559
vn -0.7141 0.6488 0.2630
vn 0.3145 0.6872 0.6549
vn -0.8747 -0.4352 0.2133
vn -0.1220 -0.1876 -0.9746
vn 0.8745 0.4356 -0.2134
vn 0.1127 0.2087 0.9715
vn 0.4661 -0.8761 0.1229
vn -0.4563 0.1964 -0.8679
vn 0.2750 0.7271 -0.6290
vn -0.9549 0.2968 0.0015
vn -0.1194 0.9401 0.3193
vt 0.375000 0.000000
vt 0.625000 0.000000
vt 0.625000 0.250000
vt 0.375000 0.250000
vt 0.625000 0.500000
vt 0.375000 0.500000
vt 0.625000 0.750000
vt 0.375000 0.750000
vt 0.625000 1.000000
vt 0.375000 1.000000
vt 0.125000 0.500000
vt 0.125000 0.750000
s 0
f 1/1/1 2/2/1 4/3/1 3/4/1
f 3/4/2 4/3/2 8/5/2 7/6/2
f 7/6/3 8/5/3 6/7/3 5/8/3
f 5/8/4 6/7/4 2/9/4 1/10/4
f 3/11/5 7/6/5 5/8/5 1/12/5
f 8/5/6 4/3/6 9/5/6
f 6/7/7 8/5/7 9/7/7
f 4/3/8 2/2/8 9/3/8
f 2/9/9 6/7/9 9/9/9
f 10/1/10 11/2/10 13/3/10 12/4/10
f 12/4/11 13/3/11 17/5/11 16/6/11
f 16/6/12 17/5/12 15/7/12 14/8/12
f 14/8/13 15/7/13 11/9/13 10/10/13
f 12/11/14 16/6/14 14/8/14 10/12/14
f 17/5/15 13/3/15 18/5/15
f 15/7/16 17/5/16 18/7/16
f 13/3/17 11/2/17 18/3/17
f 11/9/18 15/7/18 18/9/18
f 19/1/19 20/2/19 22/3/19 21/4/19
f 21/4/20 22/3/20 26/5/20 25/6/20
f 25/6/21 26/5/21 24/7/21 23/8/21
f 23/8/22 24/7/22 20/9/22 19/10/22
f 21/11/23 25/6/23 23/8/23 19/12/23
f 26/5/24 22/3/24 27/5/24
f 24/7/25 26/5/25 27/7/25
f 22/3/26 20/2/26 27/3/26
f 20/9/27 24/7/27 27/9/27
