# Blender 3.6.5
# www.blender.org
# mtllib phiras.mtl
o Sphere
v -0.277415 1.238885 -0.581334
v 0.268968 0.273630 -1.344715
v 0.127463 -0.402026 -1.318160
v 0.236792 0.964404 -0.983607
v 0.528354 0.668311 -1.089534
v 0.462018 -0.650715 -1.133426
v 0.766499 -0.205331 -1.139809
v 0.341103 -1.038895 -0.867446
v 0.894875 0.561614 -0.916730
v 0.856203 -0.668485 -0.861345
v 0.130680 1.376915 0.114826
v 0.680796 1.081365 -0.537014
v 1.158304 0.149311 -0.750931
v 0.449033 -1.232440 -0.461147
v 0.260355 1.338548 -0.278798
v 1.166072 0.652049 -0.357846
v 1.294612 -0.263066 -0.460043
v 1.372201 0.158421 -0.088494
v 1.042084 -0.879602 -0.301872
v 0.231022 -1.350839 -0.154364
v 0.924627 1.047377 0.002892
v 1.209381 0.641700 0.248241
v 1.311468 0.135742 0.421779
v 1.312001 -0.405769 0.238052
v 0.625051 -1.236154 0.003495
v 0.564548 1.228776 0.303820
v 0.822348 0.876335 0.682268
v 1.038048 0.401733 0.822218
v 1.050231 -0.135742 0.891550
v 1.002832 -0.807272 0.567026
v 0.527920 -0.562676 1.168875
v 0.344470 1.068774 0.810867
v 0.473728 0.656952 1.131575
v 0.510090 0.137337 1.291187
v 0.514194 -1.104493 0.694867
v 0.217990 -1.324669 0.335751
v -0.000061 -0.043225 1.397766
v 0.140745 1.279443 0.505384
v -0.110413 0.876335 1.062805
v -0.252324 0.422081 1.302109
v -0.252324 -0.422081 1.302109
v -0.323803 -0.833158 1.080007
v -0.519665 0.772917 1.036481
v -0.825611 0.105607 1.114509
v -0.528390 -1.080650 0.695290
v -0.193345 -1.236829 0.594788
v -0.272232 1.230696 0.587275
v -0.915505 -0.383295 0.976649
v -0.957089 0.754981 0.686392
v -1.225590 0.135744 0.629105
v -0.989976 -0.823624 0.544917
v -0.760974 1.104943 0.351952
v -1.231748 -0.532965 0.378495
v -1.213478 0.652049 0.123480
v -0.610173 -1.255896 -0.039614
v -0.382416 1.331645 -0.026336
v -1.379280 0.178769 0.023580
v -1.311155 -0.429877 -0.065136
v -1.135121 0.656952 -0.465168
v -1.284087 -0.001564 -0.560816
v -1.026078 -0.665361 -0.664020
v -1.023377 -0.907820 -0.259645
v -0.861282 1.052964 -0.313967
v -0.776843 0.652049 -0.940368
v -0.856117 0.135745 -1.079308
v -0.937166 -0.368312 -0.958909
v -0.583488 -1.087187 -0.624952
v -0.286792 0.097747 -1.358786
v -0.407905 0.807251 -1.067838
v -0.395443 -0.411799 -1.261700
v -0.309806 -0.847662 -1.058753
v -0.150910 -1.227661 -0.618599
v -0.179530 -1.374973 -0.029464
vn 0.0578 -0.5440 -0.8371
vn 0.1535 0.4634 -0.8728
vn 0.2957 -0.0993 -0.9501
vn 0.4703 0.2400 -0.8493
vn 0.2391 0.8543 -0.4615
vn 0.6478 0.1108 -0.7537
vn 0.5177 -0.3650 -0.7738
vn 0.7697 -0.1781 -0.6131
vn 0.5256 -0.7235 -0.4476
vn 0.6824 0.5931 -0.4271
vn 0.4488 0.8814 -0.1472
vn 0.5411 -0.8140 -0.2115
vn 0.9270 0.2221 -0.3024
vn 0.3182 0.9479 0.0124
vn 0.8216 -0.5638 0.0840
vn 0.9633 0.2373 0.1252
vn 0.5496 -0.8001 0.2405
vn 0.2574 -0.9646 0.0583
vn 0.0753 -0.9956 0.0552
vn 0.8976 -0.1409 0.4177
vn 0.6076 0.7437 0.2787
vn 0.3835 -0.8940 0.2317
vn 0.8486 0.0866 0.5219
vn 0.2229 0.9472 0.2306
vn 0.6521 -0.3667 0.6636
vn 0.2946 0.8672 0.4015
vn 0.4347 0.7874 0.4371
vn 0.4287 0.6350 0.6427
vn 0.5777 0.4612 0.6734
vn 0.5556 0.2794 0.7831
vn 0.2558 -0.1601 0.9534
vn 0.1057 -0.3090 0.9452
vn 0.0137 0.8274 0.5615
vn 0.0622 -0.4828 0.8735
vn 0.1302 -0.6547 0.7446
vn 0.0509 -0.7610 0.6468
vn 0.1003 -0.8829 0.4586
vn -0.0733 -0.9741 0.2139
vn -0.3212 0.0205 0.9468
vn -0.0660 0.9677 0.2432
vn -0.2280 0.7419 0.6305
vn -0.1813 0.5021 0.8456
vn -0.4429 0.3018 0.8443
vn -0.4422 -0.1672 0.8812
vn -0.4265 -0.3714 0.8247
vn -0.5291 -0.5468 0.6489
vn -0.3451 -0.9036 0.2539
vn -0.7368 0.2618 0.6234
vn -0.8510 -0.1774 0.4943
vn -0.7834 -0.3625 0.5049
vn -0.5322 -0.8083 0.2520
vn -0.7436 0.6302 0.2234
vn -0.5070 0.8619 0.0091
vn -0.8508 -0.5246 0.0304
vn -0.7916 -0.6035 0.0960
vn -0.9807 -0.1309 0.1451
vn -0.9870 -0.0911 -0.1326
vn -0.7997 0.5917 -0.1015
vn -0.9014 -0.3021 -0.3103
vn -0.9416 0.2463 -0.2294
vn -0.3869 0.8948 -0.2228
vn -0.5395 -0.8022 -0.2558
vn -0.6123 -0.6799 -0.4035
vn -0.6262 0.6157 -0.4784
vn -0.5094 -0.5246 -0.6821
vn -0.4650 0.7205 -0.5145
vn -0.2931 -0.9151 -0.2771
vn -0.2434 -0.7759 -0.5820
vn -0.0558 0.9918 -0.1151
vn 0.0028 0.4634 -0.8862
vn -0.1028 -0.1650 -0.9809
vn -0.1004 0.7575 -0.6451
vn 0.0690 -0.5784 -0.8128
vn 0.1114 -0.8854 -0.4513
vn 0.4579 0.6468 -0.6099
vn 0.0404 -0.0477 -0.9980
vn 0.3283 -0.2375 -0.9142
vn 0.1013 0.8773 -0.4691
vn 0.5051 0.1620 -0.8477
vn 0.4373 -0.5970 -0.6725
vn 0.1188 0.2816 0.9522
vn 0.7613 -0.2194 -0.6101
vn 0.5407 -0.6946 -0.4745
vn 0.8223 0.3426 -0.4544
vn 0.3249 -0.9367 -0.1306
vn 0.7929 -0.4344 -0.4274
vn 0.9468 0.0964 -0.3070
vn 0.6920 0.6694 -0.2704
vn 0.8314 0.5534 -0.0500
vn 0.9324 0.3563 -0.0605
vn 0.9893 -0.1359 -0.0524
vn 0.4177 0.9074 -0.0471
vn 0.9106 -0.3998 -0.1044
vn 0.9925 -0.0385 0.1164
vn 0.6848 -0.7230 0.0911
vn 0.8460 -0.2792 0.4543
vn 0.0273 -0.9604 -0.2773
vn 0.7029 0.6575 0.2714
vn 0.7685 0.4755 0.4282
vn 0.8685 0.3084 0.3882
vn 0.5149 -0.5718 0.6387
vn 0.6274 0.1136 0.7704
vn 0.5461 -0.1307 0.8274
vn -0.4385 0.7382 0.5126
vn -0.0070 0.8007 0.5990
vn 0.1499 0.6363 0.7567
vn 0.0639 0.4494 0.8910
vn -0.3277 -0.0203 0.9446
vn -0.1836 -0.7794 0.5990
vn -0.1367 0.9733 0.1847
vn -0.9005 0.3148 0.2999
vn -0.5223 -0.5634 0.6402
vn -0.5927 0.3562 0.7223
vn -0.2654 -0.9426 0.2027
vn -0.7723 -0.0368 0.6341
vn -0.3378 0.9171 0.2115
vn -0.7730 0.2653 -0.5763
vn -0.9674 -0.0810 0.2398
vn -0.7200 0.6919 0.0544
vn -0.6727 -0.7325 0.1046
vn -0.9286 0.3508 -0.1207
vn -0.8712 -0.4236 -0.2482
vn -0.8315 -0.2457 -0.4982
vn -0.4111 0.2892 -0.8645
vn -0.7670 -0.0298 -0.6410
vn -0.2529 -0.9356 -0.2462
vn -0.5007 -0.5844 -0.6386
vn -0.4775 0.7094 -0.5184
vn -0.4635 -0.4472 -0.7650
vn -0.4676 -0.1009 -0.8782
vn -0.0809 0.9805 -0.1792
vn -0.0342 -0.7626 -0.6460
vn -0.0918 0.3643 -0.9267
vn -0.0886 -0.4347 -0.8962
vt 0.734616 0.406655
vt 0.689079 0.342315
vt 0.794392 0.293676
vt 0.713630 0.743016
vt 0.678319 0.660608
vt 0.721204 0.561533
vt 0.655388 0.455750
vt 0.623657 0.627093
vt 0.659331 0.901110
vt 0.609744 0.781531
vt 0.591272 0.533801
vt 0.626504 0.341903
vt 0.552878 0.438619
vt 0.546046 0.282548
vt 0.689098 0.234520
vt 0.546915 0.655822
vt 0.498423 0.766907
vt 0.634282 0.154944
vt 0.501208 0.149493
vt 0.509405 0.537235
vt 0.374098 0.950679
vt 0.427294 0.845601
vt 0.469690 0.406338
vt 0.421948 0.312847
vt 0.464857 0.646732
vt 0.451782 0.530835
vt 0.351362 0.216171
vt 0.593677 0.062500
vt 0.337208 0.091485
vt 0.453125 0.000000
vt 0.389282 0.469165
vt 0.390588 0.718339
vt 0.392101 0.593583
vt 0.293360 0.875000
vt 0.320215 0.368721
vt 0.312669 0.780174
vt 0.312582 0.656006
vt 0.311555 0.530981
vt 0.249389 0.485887
vt 0.221054 0.404735
vt 0.170820 0.841342
vt 0.208642 0.306289
vt 0.199919 0.148465
vt 0.038101 0.048815
vt 0.221054 0.595265
vt 0.147516 0.523151
vt 0.172803 0.686634
vt 0.234338 0.718339
vt 0.131538 0.415904
vt 0.084466 0.292801
vt 0.141642 0.220296
vt 0.022611 0.150359
vt 0.097495 0.674738
vt 0.076782 0.530835
vt 0.046955 0.375390
vt 0.066931 0.793298
vt 0.015664 0.655822
vt 0.031154 0.911618
vt 0.000000 0.784407
vt 0.000000 0.399333
vt 0.000000 0.273040
vt 0.010664 0.538824
vt 0.993268 0.527207
vt 0.935049 0.500692
vt 0.992171 0.399333
vt 1.000000 0.655822
vt 0.945557 0.768646
vt 0.937739 0.656003
vt 0.906611 0.344360
vt 0.945396 0.911618
vt 0.820029 0.844678
vt 0.949425 0.148089
vt 0.959766 0.278455
vt 0.868449 0.212346
vt 0.859414 0.655822
vt 0.871569 0.414693
vt 0.804501 0.694669
vt 0.790497 0.152675
vt 0.828125 1.000000
vt 0.785227 0.524248
vt 0.797630 0.405349
vt 0.803482 0.029735
vt 0.858032 0.530836
s 0
f 3/1/1 6/2/1 71/3/1
f 4/4/2 5/5/2 2/6/2
f 2/6/3 7/7/3 3/1/3
f 5/5/4 9/8/4 2/6/4
f 15/9/5 12/10/5 4/4/5
f 7/7/6 9/8/6 13/11/6
f 7/7/7 10/12/7 6/2/7
f 13/11/8 17/13/8 7/7/8
f 10/12/9 19/14/9 8/15/9
f 9/8/10 12/10/10 16/16/10
f 15/9/11 21/17/11 12/10/11
f 14/18/12 19/14/12 25/19/12
f 13/11/13 16/16/13 18/20/13
f 15/9/14 11/21/14 26/22/14
f 19/14/15 24/23/15 30/24/15
f 18/20/16 22/25/16 23/26/16
f 25/19/17 30/24/17 35/27/17
f 20/28/18 25/19/18 36/29/18
f 73/30/19 20/28/19 36/29/19
f 23/26/20 29/31/20 24/23/20
f 26/22/21 27/32/21 21/17/21
f 35/27/22 36/29/22 25/19/22
f 23/26/23 28/33/23 29/31/23
f 11/21/24 38/34/24 26/22/24
f 29/31/25 31/35/25 30/24/25
f 26/22/26 38/34/26 32/36/26
f 26/22/27 32/36/27 27/32/27
f 27/32/28 32/36/28 33/37/28
f 27/32/29 33/37/29 28/33/29
f 28/33/30 33/37/30 34/38/30
f 34/38/31 37/39/31 31/35/31
f 37/39/32 41/40/32 31/35/32
f 32/36/33 38/34/33 47/41/33
f 31/35/34 41/40/34 42/42/34
f 31/35/35 42/42/35 35/27/35
f 35/27/36 42/42/36 46/43/36
f 35/27/37 46/43/37 36/29/37
f 46/43/38 73/44/38 36/29/38
f 37/39/39 40/45/39 44/46/39
f 38/34/40 11/21/40 47/41/40
f 47/41/41 43/47/41 39/48/41
f 39/48/42 43/47/42 40/45/42
f 40/45/43 43/47/43 44/46/43
f 44/46/44 48/49/44 41/40/44
f 41/40/45 48/49/45 42/42/45
f 42/42/46 48/49/46 51/50/46
f 45/51/47 55/52/47 46/43/47
f 44/46/48 49/53/48 50/54/48
f 50/54/49 53/55/49 48/49/49
f 48/49/50 53/55/50 51/50/50
f 45/51/51 51/50/51 55/52/51
f 49/53/52 52/56/52 54/57/52
f 52/56/53 56/58/53 63/59/53
f 53/55/54 58/60/54 62/61/54
f 53/55/55 62/61/55 51/50/55
f 57/62/56 58/60/56 53/55/56
f 57/63/57 60/64/57 58/65/57
f 54/66/58 63/67/58 59/68/58
f 60/64/59 61/69/59 58/65/59
f 57/63/60 59/68/60 60/64/60
f 56/70/61 1/71/61 63/67/61
f 55/72/62 62/73/62 67/74/62
f 61/69/63 67/74/63 62/73/63
f 59/68/64 63/67/64 64/75/64
f 61/69/65 66/76/65 71/3/65
f 1/71/66 69/77/66 63/67/66
f 67/74/67 72/78/67 55/72/67
f 67/74/68 71/3/68 72/78/68
f 56/70/69 11/79/69 15/9/69
f 69/77/70 4/4/70 2/6/70
f 68/80/71 3/1/71 70/81/71
f 69/77/72 1/71/72 4/4/72
f 71/3/73 6/2/73 8/15/73
f 72/78/74 8/15/74 14/18/74
f 9/8/75 5/5/75 4/4/75 12/10/75
f 68/80/76 2/6/76 3/1/76
f 3/1/77 7/7/77 6/2/77
f 1/71/78 15/9/78 4/4/78
f 2/6/79 9/8/79 7/7/79
f 8/15/80 6/2/80 10/12/80
f 40/45/81 37/39/81 34/38/81 33/37/81
f 7/7/82 17/13/82 10/12/82
f 8/15/83 19/14/83 14/18/83
f 13/11/84 9/8/84 16/16/84
f 20/28/85 14/18/85 25/19/85
f 19/14/86 10/12/86 17/13/86
f 17/13/87 13/11/87 18/20/87
f 16/16/88 12/10/88 21/17/88
f 16/16/89 21/17/89 22/25/89
f 18/20/90 16/16/90 22/25/90
f 17/13/91 18/20/91 24/23/91
f 15/9/92 26/22/92 21/17/92
f 19/14/93 17/13/93 24/23/93
f 18/20/94 23/26/94 24/23/94
f 25/19/95 19/14/95 30/24/95
f 24/23/96 29/31/96 30/24/96
f 20/28/97 73/82/97 72/78/97 14/18/97
f 22/25/98 21/17/98 27/32/98
f 22/25/99 27/32/99 28/33/99
f 23/26/100 22/25/100 28/33/100
f 30/24/101 31/35/101 35/27/101
f 29/31/102 28/33/102 34/38/102
f 29/31/103 34/38/103 31/35/103
f 49/53/104 43/47/104 47/41/104 52/56/104
f 32/36/105 47/41/105 39/48/105
f 33/37/106 32/36/106 39/48/106
f 33/37/107 39/48/107 40/45/107
f 37/39/108 44/46/108 41/40/108
f 46/43/109 42/42/109 45/51/109
f 11/21/110 56/58/110 47/41/110
f 54/57/111 57/62/111 50/54/111 49/53/111
f 42/42/112 51/50/112 45/51/112
f 44/46/113 43/47/113 49/53/113
f 46/43/114 55/52/114 73/44/114
f 44/46/115 50/54/115 48/49/115
f 47/41/116 56/58/116 52/56/116
f 64/75/117 65/83/117 60/64/117 59/68/117
f 50/54/118 57/62/118 53/55/118
f 54/57/119 52/56/119 63/59/119
f 55/52/120 51/50/120 62/61/120
f 57/63/121 54/66/121 59/68/121
f 62/73/122 58/65/122 61/69/122
f 60/64/123 66/76/123 61/69/123
f 69/77/124 68/80/124 65/83/124 64/75/124
f 60/64/125 65/83/125 66/76/125
f 55/72/126 72/78/126 73/82/126
f 61/69/127 71/3/127 67/74/127
f 64/75/128 63/67/128 69/77/128
f 71/3/129 66/76/129 70/81/129
f 70/81/130 66/76/130 65/83/130 68/80/130
f 1/71/131 56/70/131 15/9/131
f 72/78/132 71/3/132 8/15/132
f 68/80/133 69/77/133 2/6/133
f 70/81/134 3/1/134 71/3/134
