{
	"asset":{
		"generator":"Khronos glTF Blender I/O v3.6.28",
		"version":"2.0"
	},
	"scene":0,
	"scenes":[
		{
			"name":"Scene",
			"nodes":[
				0
			]
		}
	],
	"nodes":[
		{
			"mesh":0,
			"name":"craft_speederB"
		}
	],
	"materials":[
		{
			"name":"metal",
			"pbrMetallicRoughness":{
				"baseColorFactor":[
					0.843137264251709,
					0.8705882430076599,
					0.9098039269447327,
					1
				]
			}
		},
		{
			"name":"metalRed",
			"pbrMetallicRoughness":{
				"baseColorFactor":[
					1,
					0.6285242438316345,
					0.20283019542694092,
					1
				]
			}
		},
		{
			"name":"metalDark",
			"pbrMetallicRoughness":{
				"baseColorFactor":[
					0.6750622987747192,
					0.7100219130516052,
					0.7735849022865295,
					1
				]
			}
		},
		{
			"name":"dark",
			"pbrMetallicRoughness":{
				"baseColorFactor":[
					0.27450981736183167,
					0.2980392277240753,
					0.34117648005485535,
					1
				]
			}
		}
	],
	"meshes":[
		{
			"name":"Mesh craft_speederB",
			"primitives":[
				{
					"attributes":{
						"POSITION":0,
						"NORMAL":1,
						"TEXCOORD_0":2
					},
					"indices":3,
					"material":0
				},
				{
					"attributes":{
						"POSITION":4,
						"NORMAL":5,
						"TEXCOORD_0":6
					},
					"indices":7,
					"material":1
				},
				{
					"attributes":{
						"POSITION":8,
						"NORMAL":9,
						"TEXCOORD_0":10
					},
					"indices":11,
					"material":2
				},
				{
					"attributes":{
						"POSITION":12,
						"NORMAL":13,
						"TEXCOORD_0":14
					},
					"indices":15,
					"material":3
				}
			]
		}
	],
	"accessors":[
		{
			"bufferView":0,
			"componentType":5126,
			"count":131,
			"max":[
				1,
				0.5,
				1.0128352642059326
			],
			"min":[
				-1,
				0,
				-0.6871646642684937
			],
			"type":"VEC3"
		},
		{
			"bufferView":1,
			"componentType":5126,
			"count":131,
			"type":"VEC3"
		},
		{
			"bufferView":2,
			"componentType":5126,
			"count":131,
			"type":"VEC2"
		},
		{
			"bufferView":3,
			"componentType":5123,
			"count":261,
			"type":"SCALAR"
		},
		{
			"bufferView":4,
			"componentType":5126,
			"count":113,
			"max":[
				1,
				0.4000000059604645,
				0.6128352880477905
			],
			"min":[
				-1,
				0,
				-1.0128352642059326
			],
			"type":"VEC3"
		},
		{
			"bufferView":5,
			"componentType":5126,
			"count":113,
			"type":"VEC3"
		},
		{
			"bufferView":6,
			"componentType":5126,
			"count":113,
			"type":"VEC2"
		},
		{
			"bufferView":7,
			"componentType":5123,
			"count":222,
			"type":"SCALAR"
		},
		{
			"bufferView":8,
			"componentType":5126,
			"count":108,
			"max":[
				0.6000000238418579,
				0.6000000238418579,
				1.0128352642059326
			],
			"min":[
				-0.6000000238418579,
				5.716636203040998e-14,
				-1.0128352642059326
			],
			"type":"VEC3"
		},
		{
			"bufferView":9,
			"componentType":5126,
			"count":108,
			"type":"VEC3"
		},
		{
			"bufferView":10,
			"componentType":5126,
			"count":108,
			"type":"VEC2"
		},
		{
			"bufferView":11,
			"componentType":5123,
			"count":213,
			"type":"SCALAR"
		},
		{
			"bufferView":12,
			"componentType":5126,
			"count":82,
			"max":[
				0.5292893052101135,
				0.5900496244430542,
				1.0128352642059326
			],
			"min":[
				-0.5292893052101135,
				0.10000000149011612,
				-1.0128352642059326
			],
			"type":"VEC3"
		},
		{
			"bufferView":13,
			"componentType":5126,
			"count":82,
			"type":"VEC3"
		},
		{
			"bufferView":14,
			"componentType":5126,
			"count":82,
			"type":"VEC2"
		},
		{
			"bufferView":15,
			"componentType":5123,
			"count":114,
			"type":"SCALAR"
		}
	],
	"bufferViews":[
		{
			"buffer":0,
			"byteLength":1572,
			"byteOffset":0,
			"target":34962
		},
		{
			"buffer":0,
			"byteLength":1572,
			"byteOffset":1572,
			"target":34962
		},
		{
			"buffer":0,
			"byteLength":1048,
			"byteOffset":3144,
			"target":34962
		},
		{
			"buffer":0,
			"byteLength":522,
			"byteOffset":4192,
			"target":34963
		},
		{
			"buffer":0,
			"byteLength":1356,
			"byteOffset":4716,
			"target":34962
		},
		{
			"buffer":0,
			"byteLength":1356,
			"byteOffset":6072,
			"target":34962
		},
		{
			"buffer":0,
			"byteLength":904,
			"byteOffset":7428,
			"target":34962
		},
		{
			"buffer":0,
			"byteLength":444,
			"byteOffset":8332,
			"target":34963
		},
		{
			"buffer":0,
			"byteLength":1296,
			"byteOffset":8776,
			"target":34962
		},
		{
			"buffer":0,
			"byteLength":1296,
			"byteOffset":10072,
			"target":34962
		},
		{
			"buffer":0,
			"byteLength":864,
			"byteOffset":11368,
			"target":34962
		},
		{
			"buffer":0,
			"byteLength":426,
			"byteOffset":12232,
			"target":34963
		},
		{
			"buffer":0,
			"byteLength":984,
			"byteOffset":12660,
			"target":34962
		},
		{
			"buffer":0,
			"byteLength":984,
			"byteOffset":13644,
			"target":34962
		},
		{
			"buffer":0,
			"byteLength":656,
			"byteOffset":14628,
			"target":34962
		},
		{
			"buffer":0,
			"byteLength":228,
			"byteOffset":15284,
			"target":34963
		}
	],
	"buffers":[
		{
			"byteLength":15512,
			"uri":"data:application/octet-stream;base64,"
		}
	]
}
